<?xml version="1.0" encoding="UTF-8"?>
<svg xmlns="http://www.w3.org/2000/svg" xmlns:xlink="http://www.w3.org/1999/xlink" viewBox="0 0 537.38 205.76">
  <defs>
    <style>
      .cls-1 {
        mask: url(#mask);
      }

      .cls-2 {
        filter: url(#luminosity-invert);
      }

      .cls-3 {
        fill: #b76028;
      }

      .cls-4 {
        fill: #229fa8;
      }

      .cls-5 {
        fill: #f5871f;
      }

      .cls-6, .cls-7, .cls-8 {
        fill: #fff;
      }

      .cls-7 {
        font-size: 24px;
      }

      .cls-7, .cls-8 {
        font-family: AccessMN-Medium, 'Access MN';
        font-weight: 500;
      }

      .cls-8 {
        font-size: 12px;
      }

      .cls-9 {
        letter-spacing: -.07em;
      }

      .cls-10 {
        letter-spacing: -.05em;
      }

      .cls-11 {
        letter-spacing: .02em;
      }

      .cls-12 {
        letter-spacing: .02em;
      }

      .cls-13 {
        letter-spacing: .02em;
      }

      .cls-14 {
        fill: #82d0dd;
      }
    </style>
    <filter id="luminosity-invert" x="41.26" y="24.14" width="157.49" height="157.49" color-interpolation-filters="sRGB" filterUnits="userSpaceOnUse">
      <feColorMatrix result="cm" values="-1 0 0 0 1 0 -1 0 0 1 0 0 -1 0 1 0 0 0 1 0"/>
    </filter>
    <mask id="mask" x="41.26" y="24.14" width="157.49" height="157.49" maskUnits="userSpaceOnUse">
      <g class="cls-2">
        <g>
          <circle cx="120" cy="102.88" r="78.74"/>
          <circle class="cls-6" cx="120" cy="102.88" r="41.08"/>
        </g>
      </g>
    </mask>
  </defs>
  <g id="Layer_2" data-name="Layer 2">
    <g>
      <path class="cls-6" d="M120,169.42c-36.69,0-66.54-29.85-66.54-66.54s29.85-66.54,66.54-66.54,66.54,29.85,66.54,66.54-29.85,66.54-66.54,66.54ZM120,36.65c-36.52,0-66.23,29.71-66.23,66.23s29.71,66.23,66.23,66.23,66.23-29.71,66.23-66.23-29.71-66.23-66.23-66.23Z"/>
      <path class="cls-6" d="M120,168.16c-35.99,0-65.28-29.28-65.28-65.28s29.28-65.28,65.28-65.28,65.28,29.28,65.28,65.28-29.28,65.28-65.28,65.28ZM120,38.84c-35.31,0-64.05,28.73-64.05,64.05s28.73,64.05,64.05,64.05,64.05-28.73,64.05-64.05-28.73-64.05-64.05-64.05Z"/>
      <path class="cls-6" d="M120,148.33c-25.06,0-45.45-20.39-45.45-45.45s20.39-45.45,45.45-45.45,45.45,20.39,45.45,45.45-20.39,45.45-45.45,45.45ZM120,58.05c-24.72,0-44.83,20.11-44.83,44.83s20.11,44.83,44.83,44.83,44.83-20.11,44.83-44.83-20.11-44.83-44.83-44.83Z"/>
      <path class="cls-6" d="M121.71,43.56h-3.43c-.34,0-.62-.28-.62-.62s.28-.62.62-.62h3.43c.34,0,.62.28.62.62s-.28.62-.62.62ZM122.33,162.82c0-.34-.28-.62-.62-.62h-3.43c-.34,0-.62.28-.62.62s.28.62.62.62h3.43c.34,0,.62-.28.62-.62ZM60.68,104.59v-3.43c0-.34-.28-.62-.62-.62s-.62.28-.62.62v3.43c0,.34.28.62.62.62s.62-.28.62-.62ZM180.55,104.59v-3.43c0-.34-.28-.62-.62-.62s-.62.28-.62.62v3.43c0,.34.28.62.62.62s.62-.28.62-.62ZM76.84,62.14l2.42-2.42c.24-.24.24-.63,0-.87-.24-.24-.63-.24-.87,0l-2.42,2.42c-.24.24-.24.63,0,.87.12.12.28.18.44.18s.32-.06.44-.18ZM161.61,146.91l2.42-2.42c.24-.24.24-.63,0-.87-.24-.24-.63-.24-.87,0l-2.42,2.42c-.24.24-.24.63,0,.87.12.12.28.18.44.18s.32-.06.44-.18ZM79.26,146.91c.24-.24.24-.63,0-.87l-2.42-2.42c-.24-.24-.63-.24-.87,0-.24.24-.24.63,0,.87l2.42,2.42c.12.12.28.18.44.18s.32-.06.44-.18ZM164.03,62.14c.24-.24.24-.63,0-.87l-2.42-2.42c-.24-.24-.63-.24-.87,0-.24.24-.24.63,0,.87l2.42,2.42c.12.12.28.18.44.18s.32-.06.44-.18Z"/>
      <g>
        <rect class="cls-6" x="75.33" y="56.47" width="1.23" height="4.72" transform="translate(-19.35 70.94) rotate(-45)"/>
        <rect class="cls-6" x="119.38" y="38.22" width="1.23" height="4.72"/>
        <rect class="cls-6" x="119.38" y="162.82" width="1.23" height="4.72"/>
        <rect class="cls-6" x="55.34" y="102.27" width="4.72" height="1.23"/>
        <rect class="cls-6" x="179.94" y="102.27" width="4.72" height="1.23"/>
        <rect class="cls-6" x="163.44" y="144.57" width="1.23" height="4.72" transform="translate(-55.85 159.04) rotate(-45)"/>
        <rect class="cls-6" x="73.59" y="146.32" width="4.72" height="1.23" transform="translate(-81.66 96.77) rotate(-45.01)"/>
        <rect class="cls-6" x="161.69" y="58.21" width="4.72" height="1.23" transform="translate(6.44 133.2) rotate(-44.99)"/>
        <path class="cls-6" d="M64.62,80.56c-.08,0-.16-.02-.24-.05l-4.36-1.81c-.31-.13-.46-.49-.33-.8.13-.31.49-.46.8-.33l4.36,1.81c.31.13.46.49.33.8-.1.24-.33.38-.57.38Z"/>
        <path class="cls-6" d="M179.74,128.24c-.08,0-.16-.02-.24-.05l-4.36-1.81c-.31-.13-.46-.49-.33-.8.13-.31.49-.46.8-.33l4.36,1.81c.31.13.46.49.33.8-.1.24-.33.38-.57.38Z"/>
        <path class="cls-6" d="M95.25,163.24c-.08,0-.16-.02-.24-.05-.31-.13-.46-.49-.33-.8l1.81-4.36c.13-.31.49-.46.8-.33.31.13.46.49.33.8l-1.81,4.36c-.1.24-.33.38-.57.38Z"/>
        <path class="cls-6" d="M142.94,48.12c-.08,0-.16-.02-.24-.05-.31-.13-.46-.49-.33-.8l1.81-4.36c.13-.31.49-.46.8-.33.31.13.46.49.33.8l-1.81,4.36c-.1.24-.33.38-.57.38Z"/>
        <path class="cls-6" d="M60.26,128.24c-.24,0-.47-.14-.57-.38-.13-.31.02-.67.33-.8l4.36-1.81c.31-.13.67.02.8.33.13.31-.02.67-.33.8l-4.36,1.81c-.08.03-.16.05-.24.05Z"/>
        <path class="cls-6" d="M175.38,80.56c-.24,0-.47-.14-.57-.38-.13-.31.02-.67.33-.8l4.36-1.81c.31-.13.67.02.8.33.13.31-.02.67-.33.8l-4.36,1.81c-.08.03-.16.05-.24.05Z"/>
        <path class="cls-6" d="M144.74,163.24c-.24,0-.47-.14-.57-.38l-1.81-4.36c-.13-.31.02-.67.33-.8.32-.13.67.02.8.33l1.81,4.36c.13.31-.02.67-.33.8-.08.03-.16.05-.24.05Z"/>
        <path class="cls-6" d="M97.06,48.12c-.24,0-.47-.14-.57-.38l-1.81-4.36c-.13-.31.02-.67.33-.8.31-.13.67.02.8.33l1.81,4.36c.13.31-.02.67-.33.8-.08.03-.16.05-.24.05Z"/>
      </g>
      <g>
        <path class="cls-6" d="M61.92,92.01s-.09,0-.13-.01l-4.58-.91c-.37-.07-.61-.43-.53-.8.07-.37.43-.61.8-.53l4.58.91c.37.07.61.43.53.8-.06.32-.35.55-.67.55Z"/>
        <path class="cls-6" d="M182.66,116.03s-.09,0-.13-.01l-4.57-.91c-.37-.07-.61-.43-.54-.8.07-.37.43-.61.8-.54l4.57.91c.37.07.61.43.54.8-.06.32-.35.55-.67.55Z"/>
        <path class="cls-6" d="M107.54,166.22s-.09,0-.13-.01c-.37-.07-.61-.43-.53-.8l.91-4.58c.07-.37.43-.61.8-.53.37.07.61.43.53.8l-.91,4.58c-.06.32-.35.55-.67.55Z"/>
        <path class="cls-6" d="M131.55,45.48s-.09,0-.13-.01c-.37-.07-.61-.43-.53-.8l.91-4.58c.07-.37.43-.61.8-.53.37.07.61.43.53.8l-.91,4.58c-.06.32-.35.55-.67.55Z"/>
        <path class="cls-6" d="M66.88,139.06c-.22,0-.44-.11-.57-.3-.21-.31-.12-.74.19-.94l3.88-2.59c.31-.21.74-.12.94.19.21.31.12.74-.19.94l-3.88,2.59c-.12.08-.25.11-.38.11Z"/>
        <path class="cls-6" d="M169.24,70.66c-.22,0-.44-.11-.57-.3-.21-.31-.13-.74.19-.94l3.88-2.59c.31-.21.74-.12.94.19.21.31.13.74-.19.94l-3.88,2.59c-.12.08-.25.11-.38.11Z"/>
        <path class="cls-6" d="M155.49,156.68c-.22,0-.44-.11-.57-.3l-2.59-3.88c-.21-.31-.12-.74.19-.94.31-.21.74-.12.94.19l2.59,3.88c.21.31.12.74-.19.94-.12.08-.25.11-.38.11Z"/>
        <path class="cls-6" d="M87.1,54.33c-.22,0-.44-.11-.57-.3l-2.59-3.88c-.21-.31-.12-.74.19-.94.31-.21.74-.12.94.19l2.59,3.88c.21.31.12.74-.19.94-.12.08-.25.11-.38.11Z"/>
        <path class="cls-6" d="M57.34,116.03c-.32,0-.6-.22-.67-.55-.07-.37.17-.73.54-.8l4.58-.91c.37-.07.73.17.8.54.07.37-.17.73-.54.8l-4.58.91s-.09.01-.13.01Z"/>
        <path class="cls-6" d="M178.08,92.01c-.32,0-.6-.22-.67-.55-.07-.37.17-.73.53-.8l4.57-.91c.37-.08.73.17.8.53.07.37-.17.73-.53.8l-4.57.91s-.09.01-.13.01Z"/>
        <path class="cls-6" d="M132.46,166.22c-.32,0-.6-.22-.67-.55l-.91-4.58c-.07-.37.17-.73.54-.8.37-.07.73.17.8.54l.91,4.58c.07.37-.17.73-.54.8-.04,0-.09.01-.13.01Z"/>
        <path class="cls-6" d="M108.45,45.48c-.32,0-.6-.22-.67-.55l-.91-4.58c-.07-.37.17-.73.54-.8.37-.07.73.17.8.54l.91,4.58c.07.37-.17.73-.54.8-.04,0-.09.01-.13.01Z"/>
        <path class="cls-6" d="M84.51,156.68c-.13,0-.26-.04-.38-.11-.31-.21-.4-.63-.19-.94l2.59-3.88c.21-.31.63-.4.94-.19.31.21.4.63.19.94l-2.59,3.88c-.13.2-.35.3-.57.3Z"/>
        <path class="cls-6" d="M152.9,54.33c-.13,0-.26-.04-.38-.11-.31-.21-.4-.63-.19-.94l2.59-3.88c.21-.31.63-.4.94-.19.31.21.4.63.19.94l-2.59,3.88c-.13.2-.35.3-.57.3Z"/>
        <path class="cls-6" d="M173.12,139.06c-.13,0-.26-.04-.38-.11l-3.88-2.59c-.31-.21-.4-.63-.19-.94.21-.31.63-.4.94-.19l3.88,2.59c.31.21.4.63.19.94-.13.2-.35.3-.57.3Z"/>
        <path class="cls-6" d="M70.76,70.66c-.13,0-.26-.04-.38-.12l-3.88-2.59c-.31-.21-.4-.63-.19-.94.21-.31.63-.4.94-.19l3.88,2.59c.31.21.4.63.19.94-.13.2-.35.3-.57.3Z"/>
      </g>
      <g>
        <path class="cls-6" d="M69.88,107.73h-.34l-1.89-5.47-1.76,5.47h-.34l-2.5-8.04h1.13l1.59,5.54,1.74-5.54h.38l1.72,5.53,1.62-5.53h1.13l-2.47,8.04Z"/>
        <path class="cls-6" d="M122.4,54.53l-4.1-5.8v5.69h-1.03v-7.93h.43l3.99,5.48v-5.48h1.03v8.04h-.32Z"/>
        <path class="cls-6" d="M117.79,158.8l.4-1c.2.15.45.27.75.37.3.1.57.15.81.15.42,0,.76-.11,1.02-.35.26-.23.38-.52.38-.88,0-.27-.07-.51-.21-.74-.14-.23-.5-.48-1.07-.75l-.64-.3c-.54-.25-.92-.55-1.13-.9-.22-.35-.32-.76-.32-1.25,0-.59.21-1.08.63-1.47.42-.39.96-.58,1.61-.58.88,0,1.49.14,1.83.43l-.32.94c-.14-.1-.36-.21-.66-.3-.3-.1-.57-.15-.82-.15-.37,0-.66.1-.87.31-.21.21-.32.48-.32.81,0,.2.04.39.11.55.08.17.18.31.32.42.13.11.41.27.83.47l.65.31c.54.26.92.56,1.14.92.22.36.33.81.33,1.36,0,.6-.24,1.1-.72,1.52-.48.41-1.12.62-1.92.62-.7,0-1.31-.17-1.8-.5Z"/>
        <path class="cls-6" d="M171.02,99.99v2.2h2.62v.92h-2.62v2.86h3.59v.97h-4.68v-7.93h4.73v.97h-3.65Z"/>
      </g>
      <g>
        <g>
          <path class="cls-6" d="M158.61,66.26l.46-3.48-1.93,1.93-.53-.53,3.12-3.12.27.27-.41,3.35,1.88-1.88.53.53-3.16,3.16-.23-.23Z"/>
          <path class="cls-6" d="M155.65,66.68l-.73.73,1.03,1.03-.47.47-1.03-1.03-.93.93,1.41,1.41-.49.49-1.96-1.96,3.11-3.12,1.99,1.99-.49.49-1.44-1.43Z"/>
        </g>
        <g>
          <path class="cls-6" d="M83.12,141.83l-.7.29c-.06-.37-.2-.66-.41-.88-.32-.32-.6-.37-.83-.15-.11.11-.17.25-.19.42-.02.17.03.44.15.8.12.36.18.62.19.78,0,.16-.02.32-.08.47-.06.15-.16.29-.29.42-.24.24-.53.35-.86.33-.34-.02-.64-.16-.92-.44-.36-.36-.56-.69-.59-1l.64-.31c.06.33.19.61.41.82.13.13.26.19.4.2.14,0,.26-.05.37-.16.18-.18.17-.56-.04-1.15-.11-.31-.16-.55-.17-.73,0-.18.02-.35.09-.51.07-.16.17-.31.31-.45.25-.25.56-.36.92-.32.36.03.71.22,1.04.56.29.29.48.63.56,1.01Z"/>
          <path class="cls-6" d="M85.84,135.41l.23.23-1.28,2.64,2.63-1.3.23.23-2.13,4.18-.58-.58,1.3-2.46-2.51,1.25-.24-.24,1.25-2.51-2.46,1.3-.58-.58,4.16-2.15Z"/>
        </g>
        <g>
          <path class="cls-6" d="M83.21,64.49l-3.48-.46,1.93,1.93-.53.53-3.12-3.12.27-.27,3.35.41-1.88-1.88.53-.53,3.16,3.16-.23.23Z"/>
          <path class="cls-6" d="M87.56,68.85l-.23.23-2.64-1.28,1.3,2.63-.23.23-4.18-2.13.58-.58,2.46,1.3-1.25-2.51.24-.24,2.51,1.25-1.3-2.46.58-.58,2.15,4.16Z"/>
        </g>
        <g>
          <path class="cls-6" d="M158.95,140.16l.29.7c-.37.06-.66.2-.87.41-.32.32-.37.6-.15.83.11.11.25.17.42.19.17.02.44-.03.8-.15.36-.12.62-.18.78-.19.16,0,.31.02.47.08.15.06.29.16.42.29.24.24.35.53.34.86-.02.34-.16.64-.44.92-.36.36-.69.56-.99.59l-.31-.64c.33-.06.61-.19.82-.41.13-.13.19-.26.2-.4,0-.14-.05-.26-.16-.37-.18-.18-.56-.17-1.15.04-.31.11-.55.16-.73.17-.18,0-.35-.02-.51-.09-.16-.07-.31-.17-.45-.31-.25-.25-.36-.56-.32-.92.04-.36.22-.71.56-1.04.29-.29.63-.48,1.01-.56Z"/>
          <path class="cls-6" d="M156.47,138.83l-.73-.73-1.03,1.03-.47-.47,1.03-1.03-.93-.93-1.41,1.41-.49-.49,1.97-1.96,3.12,3.11-1.99,1.99-.49-.49,1.43-1.44Z"/>
        </g>
      </g>
      <path class="cls-6" d="M120,143.97c-22.65,0-41.08-18.43-41.08-41.08s18.43-41.08,41.08-41.08,41.08,18.43,41.08,41.08-18.43,41.08-41.08,41.08ZM120,63.75c-21.58,0-39.13,17.55-39.13,39.13s17.55,39.13,39.13,39.13,39.13-17.55,39.13-39.13-17.55-39.13-39.13-39.13Z"/>
    </g>
  </g>
  <g id="Layer_4" data-name="Layer 4">
    <g class="cls-1">
      <g>
        <polygon class="cls-14" points="190.7 103.43 193.63 103.13 120.06 95.28 120.02 103.03 190.7 103.43"/>
        <polygon class="cls-4" points="119.97 110.79 190.7 103.43 120.02 103.03 119.97 110.79"/>
        <polygon class="cls-5" points="120.06 95.28 46.41 102.3 49.34 102.64 120.02 103.03 120.06 95.28"/>
        <polygon class="cls-3" points="120.02 103.03 49.34 102.64 119.97 110.79 120.02 103.03"/>
        <path class="cls-6" d="M122.88,109.78c-3.78,1.54-8.09-.27-9.63-4.05-1.54-3.78.27-8.09,4.05-9.63,3.78-1.54,8.09.27,9.63,4.05,1.54,3.78-.28,8.09-4.05,9.63Z"/>
        <path class="cls-5" d="M122.15,105.01c-1.15,1.13-2.99,1.12-4.12-.02-1.13-1.15-1.12-2.99.02-4.12,1.15-1.13,2.99-1.12,4.12.02,1.13,1.14,1.12,2.99-.03,4.12Z"/>
      </g>
    </g>
  </g>
  <g id="Layer_1" data-name="Layer 1">
    <g>
      <text class="cls-8" transform="translate(442.78 90.63)"><tspan x="0" y="0">HEIGHT</tspan></text>
      <text class="cls-7" transform="translate(425.91 115.02)"><tspan x="0" y="0">HEIGHT</tspan></text>
    </g>
    <g>
      <text class="cls-8" transform="translate(263.3 90.63)"><tspan x="0" y="0">W</tspan><tspan class="cls-9" x="8.45" y="0">A</tspan><tspan class="cls-12" x="13.39" y="0">T</tspan><tspan x="18.65" y="0">ER </tspan><tspan class="cls-13" x="32.63" y="0">T</tspan><tspan x="37.88" y="0">EMP</tspan></text>
      <text class="cls-7" transform="translate(266.71 115.02)"><tspan class="cls-11" x="0" y="0">T</tspan><tspan x="10.51" y="0">EMP</tspan></text>
    </g>
    <g>
      <text class="cls-8" transform="translate(93.82 90.63)"><tspan x="0" y="0">DIRe</tspan><tspan class="cls-10" x="19.56" y="0">c</tspan><tspan x="24.72" y="0">tion</tspan></text>
      <text class="cls-7" transform="translate(70.09 115.02)"><tspan x="0" y="0">Dire</tspan><tspan class="cls-10" x="39.12" y="0">c</tspan><tspan x="49.44" y="0">tion</tspan></text>
    </g>
  </g>
</svg>